<svg width="60" height="60" viewBox="0 0 60 60" fill="none" xmlns="http://www.w3.org/2000/svg">
<path d="M30 60C46.5685 60 60 46.5685 60 30C60 13.4315 46.5685 0 30 0C13.4315 0 0 13.4315 0 30C0 46.5685 13.4315 60 30 60Z" fill="#FF643A"/>
<path d="M15.8056 19.7857L27.2216 30.9205C28.4799 32.1479 30.5202 32.1479 31.7784 30.9205L43.1944 19.7857H15.8056ZM16.6111 41H42.3889C43.2787 41 44 40.2965 44 39.4286V20.5714C44 19.7036 43.2787 19 42.3889 19H16.6111C15.7213 19 15 19.7036 15 20.5714V39.4286C15 40.2965 15.7213 41 16.6111 41Z" stroke="white" stroke-width="1.5" stroke-linecap="round" stroke-linejoin="round"/>
</svg>
