<svg width="60" height="60" viewBox="0 0 60 60" fill="none" xmlns="http://www.w3.org/2000/svg">
<path d="M30 60C46.5685 60 60 46.5685 60 30C60 13.4315 46.5685 0 30 0C13.4315 0 0 13.4315 0 30C0 46.5685 13.4315 60 30 60Z" fill="#567AFF"/>
<path fill-rule="evenodd" clip-rule="evenodd" d="M30 15C38.4499 15 45 21.1896 45 29.55C45 37.9104 38.4499 44.1 30 44.1C28.4822 44.1 27.0261 43.8995 25.6579 43.5233C25.392 43.4501 25.1092 43.4709 24.8568 43.5823L21.8795 44.8966C21.1007 45.2404 20.2216 44.6864 20.1955 43.8355L20.1138 41.167C20.1037 40.8385 19.9558 40.531 19.7108 40.3119C16.7922 37.7018 15 33.923 15 29.55C15 21.1896 21.5501 15 30 15ZM20.9926 33.8051C20.5697 34.476 21.3943 35.232 22.0261 34.7526L26.7591 31.1605C27.0793 30.9175 27.5217 30.9162 27.8432 31.1574L31.3478 33.7858C32.3994 34.5746 33.9003 34.2976 34.6012 33.1856L39.0075 26.1949C39.4303 25.524 38.6056 24.768 37.9739 25.2474L33.2409 28.8395C32.9207 29.0825 32.4783 29.0838 32.1568 28.8426L28.6522 26.2142C27.6006 25.4255 26.0997 25.7024 25.3988 26.8145L20.9926 33.8051Z" fill="white"/>
</svg>
