<svg width="31" height="31" viewBox="0 0 31 31" fill="none" xmlns="http://www.w3.org/2000/svg">
<path d="M30.3925 23.0347V27.4778C30.3942 27.8903 30.3097 28.2985 30.1444 28.6765C29.9792 29.0544 29.7368 29.3936 29.4329 29.6725C29.129 29.9513 28.7701 30.1636 28.3794 30.2958C27.9887 30.4279 27.5746 30.477 27.1638 30.4399C22.6064 29.9447 18.2288 28.3874 14.3825 25.8931C10.8041 23.6192 7.77018 20.5853 5.4963 17.0069C2.99332 13.1432 1.43566 8.74417 0.949521 4.1663C0.912511 3.75674 0.961184 3.34397 1.09244 2.95426C1.2237 2.56454 1.43466 2.20643 1.71191 1.90272C1.98915 1.599 2.32659 1.35635 2.70276 1.19019C3.07892 1.02404 3.48556 0.938031 3.89678 0.937644H8.33989C9.05864 0.93057 9.75545 1.18509 10.3004 1.65377C10.8454 2.12245 11.2014 2.77331 11.302 3.48502C11.4895 4.90691 11.8373 6.30303 12.3387 7.64673C12.5379 8.17683 12.5811 8.75294 12.4629 9.30679C12.3448 9.86065 12.0704 10.369 11.6722 10.7717L9.7913 12.6526C11.8996 16.3605 14.9697 19.4305 18.6775 21.5388L20.5584 19.6579C20.9611 19.2597 21.4695 18.9853 22.0233 18.8672C22.5772 18.7491 23.1533 18.7922 23.6834 18.9915C25.0271 19.4929 26.4232 19.8406 27.8451 20.0282C28.5646 20.1297 29.2216 20.492 29.6913 21.0464C30.161 21.6007 30.4105 22.3083 30.3925 23.0347Z" fill="white" stroke="currentColor"/>
</svg>
