<svg width="49" height="49" viewBox="0 0 49 49" fill="none" xmlns="http://www.w3.org/2000/svg">
<path fill-rule="evenodd" clip-rule="evenodd" d="M0.823975 24.6405C0.823975 30.957 3.3332 37.0148 7.79964 41.4812C12.2661 45.9477 18.3239 48.4569 24.6404 48.4569C30.9569 48.4569 37.0147 45.9477 41.4811 41.4812C45.9476 37.0148 48.4568 30.957 48.4568 24.6405C48.4568 18.324 45.9476 12.2662 41.4811 7.79976C37.0147 3.33332 30.9569 0.824097 24.6404 0.824097C18.3239 0.824097 12.2661 3.33332 7.79964 7.79976C3.3332 12.2662 0.823975 18.324 0.823975 24.6405ZM44.374 24.6405C44.374 29.8742 42.2949 34.8935 38.5941 38.5942C34.8934 42.295 29.874 44.3741 24.6404 44.3741C19.4067 44.3741 14.3874 42.295 10.6866 38.5942C6.98586 34.8935 4.90679 29.8742 4.90679 24.6405C4.90679 19.4068 6.98586 14.3875 10.6866 10.6867C14.3874 6.98598 19.4067 4.90691 24.6404 4.90691C29.874 4.90691 34.8934 6.98598 38.5941 10.6867C42.2949 14.3875 44.374 19.4068 44.374 24.6405Z" fill="#FF0000"/>
<path fill-rule="evenodd" clip-rule="evenodd" d="M14.4329 24.6405C14.4329 36.9488 18.4912 47.096 24.6399 47.096C30.7886 47.096 34.8469 36.9488 34.8469 24.6405C34.8469 12.3322 30.7886 2.18506 24.6399 2.18506C18.4912 2.18506 14.4329 12.3322 14.4329 24.6405ZM30.7641 24.6405C30.7641 34.8802 27.5115 43.0132 24.6399 43.0132C21.7683 43.0132 18.5157 34.8802 18.5157 24.6405C18.5157 14.4008 21.7683 6.26787 24.6399 6.26787C27.5115 6.26787 30.7641 14.4008 30.7641 24.6405Z" fill="#FF0000"/>
<path d="M7.22607 12.3021L9.96428 9.27539C10.2365 9.52036 10.5332 9.76533 10.8489 10.0021C14.3084 12.5934 19.8311 14.1938 25.86 14.1938C31.0071 14.1938 35.8003 13.0316 39.2816 11.0419C40.1199 10.5628 40.8657 10.043 41.5108 9.49042L44.1619 12.5961C43.3181 13.3174 42.3628 13.9842 41.3094 14.583C37.183 16.9456 31.6903 18.2739 25.86 18.2739C18.9955 18.2739 12.6181 16.4285 8.3992 13.2684C7.99353 12.9645 7.60207 12.642 7.22607 12.3021Z" fill="#FF0000"/>
<path d="M7.22607 37.0222L9.96428 40.0489C10.2365 39.8012 10.5332 39.559 10.8489 39.3222C14.3084 36.731 19.8311 35.1305 25.86 35.1305C31.0071 35.1305 35.8003 36.2927 39.2816 38.2824C40.1199 38.7615 40.8657 39.2814 41.5108 39.8339L44.1619 36.7282C43.2751 35.9784 42.3201 35.3132 41.3094 34.7413C37.183 32.3787 31.6903 31.0504 25.86 31.0504C18.9955 31.0504 12.6181 32.8958 8.3992 36.0559C7.99352 36.3598 7.60206 36.6823 7.22607 37.0222Z" fill="#FF0000"/>
<path d="M2.18481 26.6819V22.5991H47.0957V26.6819H2.18481Z" fill="#FF0000"/>
</svg>
