<svg width="85" height="31" viewBox="0 0 85 31" fill="none" xmlns="http://www.w3.org/2000/svg">
<path d="M12.038 30.369C9.79667 30.369 7.692 30.0683 5.724 29.467C3.78333 28.8657 2.12967 28.0047 0.763 26.884L2.567 23.03C3.98833 24.096 5.46433 24.8887 6.995 25.408C8.553 25.9 10.2477 26.146 12.079 26.146C14.1017 26.146 15.6597 25.7907 16.753 25.08C17.8737 24.3693 18.434 23.3717 18.434 22.087C18.434 20.9937 17.9147 20.16 16.876 19.586C15.8647 18.9847 14.1837 18.4243 11.833 17.905C8.17033 17.1123 5.50533 16.0873 3.838 14.83C2.17067 13.5727 1.337 11.7413 1.337 9.336C1.337 7.614 1.80167 6.08333 2.731 4.744C3.66033 3.40467 4.97233 2.35233 6.667 1.587C8.389 0.821666 10.3707 0.438999 12.612 0.438999C14.662 0.438999 16.6027 0.753333 18.434 1.382C20.2927 1.98333 21.8097 2.83066 22.985 3.924L21.222 7.778C18.6253 5.70067 15.7553 4.662 12.612 4.662C10.726 4.662 9.23633 5.05833 8.143 5.851C7.04967 6.61633 6.503 7.66866 6.503 9.008C6.503 10.156 6.98133 11.0307 7.938 11.632C8.922 12.2333 10.5893 12.7937 12.94 13.313C15.3727 13.887 17.3543 14.5157 18.885 15.199C20.4157 15.855 21.591 16.716 22.411 17.782C23.231 18.8207 23.641 20.1327 23.641 21.718C23.641 23.4673 23.1763 24.998 22.247 26.31C21.3177 27.5947 19.9783 28.5923 18.229 29.303C16.4797 30.0137 14.416 30.369 12.038 30.369ZM56.9967 0.807999V30H52.3227V11.878L44.5737 30H41.0887L33.2987 12.083V30H28.6247V0.807999H32.8067L42.8517 23.645L52.8147 0.807999H56.9967ZM73.2577 30.369C71.0164 30.369 68.9117 30.0683 66.9437 29.467C65.0031 28.8657 63.3494 28.0047 61.9827 26.884L63.7867 23.03C65.2081 24.096 66.6841 24.8887 68.2147 25.408C69.7727 25.9 71.4674 26.146 73.2987 26.146C75.3214 26.146 76.8794 25.7907 77.9727 25.08C79.0934 24.3693 79.6537 23.3717 79.6537 22.087C79.6537 20.9937 79.1344 20.16 78.0957 19.586C77.0844 18.9847 75.4034 18.4243 73.0527 17.905C69.3901 17.1123 66.7251 16.0873 65.0577 14.83C63.3904 13.5727 62.5567 11.7413 62.5567 9.336C62.5567 7.614 63.0214 6.08333 63.9507 4.744C64.8801 3.40467 66.1921 2.35233 67.8867 1.587C69.6087 0.821666 71.5904 0.438999 73.8317 0.438999C75.8817 0.438999 77.8224 0.753333 79.6537 1.382C81.5124 1.98333 83.0294 2.83066 84.2047 3.924L82.4417 7.778C79.8451 5.70067 76.9751 4.662 73.8317 4.662C71.9457 4.662 70.4561 5.05833 69.3627 5.851C68.2694 6.61633 67.7227 7.66866 67.7227 9.008C67.7227 10.156 68.2011 11.0307 69.1577 11.632C70.1417 12.2333 71.8091 12.7937 74.1597 13.313C76.5924 13.887 78.5741 14.5157 80.1047 15.199C81.6354 15.855 82.8107 16.716 83.6307 17.782C84.4507 18.8207 84.8607 20.1327 84.8607 21.718C84.8607 23.4673 84.3961 24.998 83.4667 26.31C82.5374 27.5947 81.1981 28.5923 79.4487 29.303C77.6994 30.0137 75.6357 30.369 73.2577 30.369Z" fill="#FF0000"/>
</svg>
