<svg width="71" height="63" viewBox="0 0 71 63" fill="none" xmlns="http://www.w3.org/2000/svg">
<path d="M36.2891 28.0791H40.2685V32.0586H36.2891V28.0791Z" fill="#FF0000" stroke="#FF0000"/>
<path d="M46.2461 28.0791H50.2256V32.0586H46.2461V28.0791Z" fill="#FF0000" stroke="#FF0000"/>
<path d="M56.207 28.0791H60.1865V32.0586H56.207V28.0791Z" fill="#FF0000" stroke="#FF0000"/>
<path d="M36.2891 38.0381H40.2685V42.0176H36.2891V38.0381Z" fill="#FF0000" stroke="#FF0000"/>
<path d="M46.2461 38.0381H50.2256V42.0176H46.2461V38.0381Z" fill="#FF0000" stroke="#FF0000"/>
<path d="M56.207 38.0381H60.1865V42.0176H56.207V38.0381Z" fill="#FF0000" stroke="#FF0000"/>
<path d="M36.2891 47.9971H40.2685V51.9766H36.2891V47.9971Z" fill="#FF0000" stroke="#FF0000"/>
<path d="M46.2461 47.9971H50.2256V51.9766H46.2461V47.9971Z" fill="#FF0000" stroke="#FF0000"/>
<path d="M56.207 47.9971H60.1865V51.9766H56.207V47.9971Z" fill="#FF0000" stroke="#FF0000"/>
<path d="M36.2891 18.1201H60.1865V22.0996H36.2891V18.1201Z" fill="#FF0000" stroke="#FF0000"/>
<path d="M30.309 7.66138V8.16138H30.809L65.6649 8.16138C65.665 8.16138 65.6652 8.16138 65.6654 8.16138C66.853 8.16268 67.9916 8.63505 68.8314 9.47484C69.6713 10.3147 70.1437 11.4536 70.1449 12.6414V57.4557C70.1437 58.6435 69.6713 59.7823 68.8314 60.6222C67.9915 61.4621 66.8527 61.9345 65.6649 61.9357H5.91211C4.72431 61.9345 3.5855 61.4621 2.74559 60.6222C1.90575 59.7824 1.43338 58.6436 1.43213 57.4559V12.6411C1.43338 11.4534 1.90575 10.3147 2.74559 9.47484C3.58538 8.63506 4.72399 8.16269 5.91161 8.16138C5.91162 8.16138 5.91164 8.16138 5.91165 8.16138C5.91181 8.16138 5.91196 8.16138 5.91211 8.16138L10.8911 8.16138H11.3911V7.66138V5.17213C11.3923 3.98433 11.8647 2.84552 12.7046 2.00562C13.5444 1.16577 14.6831 0.693401 15.8708 0.692154H25.8293C27.017 0.693401 28.1557 1.16577 28.9955 2.00562C29.8354 2.84552 30.3078 3.98433 30.309 5.17213V7.66138ZM15.8706 4.67164H15.3706V5.17164V47.4972V47.9972H15.8706H25.8295H26.3295V47.4972V5.17164V4.67164H25.8295H15.8706ZM65.6654 57.9562H66.1654V57.4562V12.6409V12.1409H65.6654H30.809H30.309V12.6409V47.4967C30.3078 48.6845 29.8354 49.8233 28.9955 50.6632C28.1556 51.5031 27.0168 51.9755 25.829 51.9767H15.8711C14.6833 51.9755 13.5445 51.5031 12.7046 50.6632C11.8647 49.8233 11.3923 48.6845 11.3911 47.4967V12.6409V12.1409H10.8911H5.91161H5.41161V12.6409V57.4562V57.9562H5.91161H65.6654Z" fill="#FF0000" stroke="#FF0000"/>
</svg>
