<svg width="63" height="63" viewBox="0 0 63 63" fill="none" xmlns="http://www.w3.org/2000/svg">
<path d="M0.192383 17.904C0.354321 17.8716 0.321933 17.7259 0.370514 17.6125C0.921103 16.3494 1.87654 15.7179 3.2692 15.7179C7.99778 15.7179 12.7426 15.7179 17.4711 15.7179C21.6329 15.7179 25.8109 15.7179 29.9727 15.7179C30.248 15.7179 30.5395 15.6855 30.7986 15.8474C31.1549 16.0741 31.333 16.398 31.2682 16.819C31.2035 17.2563 30.912 17.5477 30.4747 17.6287C30.2642 17.6773 30.0375 17.6449 29.8108 17.6449C21.05 17.6449 12.2891 17.6449 3.5283 17.6449C2.41093 17.6449 2.13564 17.9202 2.13564 19.0376C2.13564 30.3894 2.13564 41.7412 2.13564 53.0931C2.13564 54.2914 2.39474 54.5667 3.57688 54.5667C22.6855 54.5667 41.778 54.5667 60.8866 54.5667C62.1336 54.5667 62.3765 54.8096 62.3765 56.0403C62.3765 57.1253 62.3765 58.2265 62.3765 59.3115C62.3603 60.8337 61.5182 61.8863 60.0122 62.2264C59.9798 62.2264 59.9798 62.2911 59.9474 62.3235C41.4055 62.3235 22.8637 62.3235 4.32179 62.3235C4.20844 62.113 3.98173 62.1454 3.81979 62.0482C2.76719 61.4815 2.16802 60.6394 2.15183 59.4248C2.13564 58.8905 2.52429 58.4694 3.02629 58.437C3.56069 58.4046 3.91695 58.6799 4.06269 59.1819C4.37038 60.3155 4.41896 60.3641 5.56872 60.3641C23.3657 60.3641 41.1464 60.3641 58.9434 60.3641C59.0891 60.3641 59.2349 60.3641 59.3644 60.3641C60.0446 60.3317 60.417 59.9916 60.4332 59.3115C60.4494 58.599 60.4008 57.8864 60.4494 57.1901C60.498 56.6071 60.3361 56.4614 59.7369 56.4614C41.0493 56.4776 22.3779 56.4776 3.69024 56.4776C3.49591 56.4776 3.28539 56.4776 3.09107 56.4776C1.84415 56.4128 0.95349 55.8136 0.419096 54.6963C0.354321 54.5667 0.370514 54.3724 0.192383 54.2914C0.192383 42.1947 0.192383 30.0493 0.192383 17.904Z" fill="#FF0000"/>
<path d="M25.3896 52.6397C18.7502 52.6397 12.1107 52.6397 5.47128 52.6397C4.35391 52.6397 4.07861 52.3644 4.07861 51.247C4.07861 41.1745 4.07861 31.0858 4.07861 21.0132C4.07861 19.8797 4.35391 19.6044 5.45508 19.6044C13.9406 19.6044 22.41 19.6044 30.8955 19.6044C31.0574 19.6044 31.2194 19.5882 31.3813 19.6206C31.8995 19.7016 32.2072 20.0254 32.2396 20.5598C32.272 21.0618 31.8833 21.4829 31.3651 21.5476C31.1708 21.5638 30.9603 21.5638 30.7659 21.5638C22.7338 21.5638 14.7017 21.5638 6.65342 21.5476C6.11903 21.5476 6.00567 21.6772 6.00567 22.1954C6.02187 31.4906 6.02187 40.7696 6.00567 50.0649C6.00567 50.5831 6.11903 50.7126 6.65342 50.7126C19.1874 50.6964 31.7052 50.6964 44.2392 50.7126C44.7574 50.7126 44.9031 50.6155 44.9031 50.0649C44.8869 41.7737 44.8869 33.4663 44.8869 25.175C44.8869 25.0617 44.8869 24.9321 44.8869 24.8188C44.8869 23.9605 45.227 23.4909 45.8747 23.5071C46.4901 23.5233 46.8302 23.9605 46.8302 24.7864C46.8302 25.9523 46.8302 27.1345 46.8302 28.3004C46.8302 35.9439 46.8302 43.6036 46.8302 51.247C46.8302 52.3644 46.5549 52.6397 45.4213 52.6397C38.7495 52.6397 32.0614 52.6397 25.3896 52.6397Z" fill="#FF0000"/>
<path d="M39.0572 22.1306C39.7698 21.4181 40.3851 20.8351 40.9519 20.2036C41.3568 19.7664 41.794 19.5882 42.3932 19.6044C47.9314 19.6206 53.4859 19.6206 59.0242 19.6206C60.1415 19.6206 60.4168 19.3453 60.4168 18.228C60.4168 15.6208 60.4168 13.0136 60.4168 10.3902C60.4168 10.2282 60.4168 10.0663 60.4168 9.90435C60.4492 9.32138 60.8379 8.93273 61.3722 8.93273C61.9066 8.93273 62.3439 9.32138 62.3439 9.88816C62.3601 12.9002 62.3925 15.9122 62.3277 18.9405C62.2953 20.4303 60.9512 21.5477 59.429 21.5639C56.8866 21.5801 54.328 21.5639 51.7855 21.5639C48.8059 21.5639 45.8424 21.5639 42.8628 21.5639C42.5065 21.5639 42.2636 21.661 42.0207 21.9201C41.0005 22.9565 39.9641 23.9767 38.9277 25.0131C38.5714 25.3694 38.199 25.5961 37.6808 25.3694C37.2111 25.1589 37.0816 24.754 37.0978 24.2682C37.114 23.5071 37.0816 22.7298 37.114 21.9687C37.1302 21.6448 37.033 21.5477 36.7091 21.5639C36.2881 21.5801 35.8671 21.5963 35.446 21.4829C34.1505 21.1428 33.2275 20.0578 33.2275 18.7138C33.2113 13.4994 33.2113 8.26878 33.2275 3.05439C33.2275 1.4674 34.5068 0.204284 36.11 0.204284C43.8992 0.18809 51.6884 0.18809 59.4938 0.204284C61.0808 0.204284 62.3439 1.4674 62.3763 3.05439C62.3925 4.00982 62.3925 4.94906 62.3763 5.90449C62.3763 6.56844 61.9876 6.98947 61.4046 6.98947C60.8379 6.98947 60.433 6.56844 60.433 5.90449C60.4168 5.03003 60.433 4.17176 60.433 3.29729C60.433 2.5038 60.0767 2.13134 59.2994 2.13134C51.656 2.13134 43.9963 2.13134 36.3529 2.13134C35.527 2.13134 35.1869 2.48761 35.1869 3.32968C35.1869 8.36594 35.1869 13.4022 35.1869 18.4547C35.1869 19.2805 35.5432 19.6206 36.3691 19.6368C36.9197 19.6368 37.4702 19.6206 38.0046 19.6368C38.6848 19.653 39.041 20.0255 39.0572 20.7056C39.0572 20.9323 39.0572 21.1428 39.0572 21.3695C39.0572 21.5477 39.0572 21.7744 39.0572 22.1306Z" fill="#FF0000"/>
<path d="M52.6761 8.30117C53.4858 7.89632 54.2307 7.50767 54.9918 7.13521C55.8663 6.71418 56.5302 7.13522 56.5302 8.10684C56.5464 9.92054 56.5464 11.7504 56.5302 13.5641C56.5302 14.5682 55.8501 14.973 54.9432 14.5358C54.5546 14.3576 54.1821 14.1633 53.8097 13.969C53.4534 13.7909 53.0972 13.6127 52.6761 13.4022C52.6599 13.6937 52.6599 13.9528 52.6113 14.1957C52.3846 15.6208 51.2025 16.6733 49.745 16.6733C47.1378 16.6895 44.5306 16.6895 41.9234 16.6733C40.3041 16.6572 39.0571 15.394 39.041 13.7747C39.0248 11.8314 39.0248 9.88816 39.041 7.9449C39.0571 6.29314 40.3203 5.03002 41.972 5.03002C44.4173 5.01383 46.8625 5.03002 49.3078 5.03002C51.4616 5.03002 52.5628 6.08262 52.6761 8.30117ZM45.8585 14.7463C47.0893 14.7463 48.32 14.7463 49.5507 14.7463C50.3442 14.7463 50.6843 14.39 50.7005 13.5965C50.7005 11.7828 50.7005 9.95293 50.7005 8.13923C50.7005 7.34573 50.3442 6.98947 49.5669 6.98947C47.1055 6.98947 44.6278 6.98947 42.1664 6.98947C41.3405 6.98947 41.0004 7.34573 40.9842 8.17162C40.9842 9.96913 40.9842 11.7666 40.9842 13.5641C40.9842 14.39 41.3243 14.7463 42.1502 14.7463C43.3971 14.7463 44.6278 14.7463 45.8585 14.7463ZM54.587 9.53189C53.9716 9.83957 53.421 10.0987 52.9028 10.374C52.5466 10.5683 52.5466 11.1513 52.9028 11.3294C53.4372 11.6209 54.004 11.88 54.587 12.1715C54.587 11.2808 54.587 10.4387 54.587 9.53189Z" fill="#FF0000"/>
<path d="M16.6937 48.7532C14.1999 48.7532 11.7222 48.7532 9.22838 48.7532C8.28915 48.7532 7.94908 48.4293 7.96527 47.4738C7.98146 46.6318 7.8843 45.7735 8.06243 44.9314C8.49967 42.6805 10.4267 41.0125 12.7262 40.9963C15.3982 40.9639 18.0702 40.9639 20.7422 40.9963C23.3008 41.0287 25.3898 43.1339 25.4545 45.6763C25.4707 46.3241 25.4707 46.9718 25.4545 47.6196C25.4384 48.3969 25.0821 48.7532 24.2886 48.7532C21.7462 48.7532 19.2199 48.7532 16.6937 48.7532ZM16.6775 46.8099C18.7989 46.8099 20.9203 46.8099 23.0579 46.8099C23.2198 46.8099 23.4465 46.9556 23.5113 46.5994C23.8676 44.6885 22.4749 42.9396 20.5154 42.9396C18.1026 42.9234 15.6897 43.0044 13.293 42.9072C11.3822 42.8262 9.73039 44.1055 9.87614 46.3727C9.90852 46.7613 9.98949 46.8261 10.3619 46.8261C12.4671 46.8099 14.5723 46.8099 16.6775 46.8099Z" fill="#FF0000"/>
<path d="M22.524 32.3652C22.605 33.6445 22.4431 34.9724 21.682 36.2031C20.3217 38.4378 17.7145 39.5066 15.1883 38.8265C12.662 38.1463 10.8969 35.9278 10.8645 33.3206C10.8483 32.1061 10.735 30.8915 11.075 29.6932C11.8362 26.9726 14.5405 25.1104 17.2935 25.4504C20.2245 25.8067 22.4269 28.1872 22.5079 31.0697C22.5402 31.4745 22.524 31.847 22.524 32.3652ZM12.824 32.0899C12.824 32.5757 12.824 32.9319 12.824 33.3044C12.8726 35.2639 14.3786 36.8994 16.3218 37.0937C18.2651 37.2881 20.0626 35.9764 20.4836 34.0655C20.6941 33.1425 20.5808 32.2032 20.5808 31.2802C20.5646 29.2398 19.0424 27.5718 17.0505 27.4099C15.0425 27.2317 13.2936 28.5758 12.8888 30.6C12.7754 31.1182 12.8402 31.6688 12.824 32.0899Z" fill="#FF0000"/>
<path d="M50.7172 38.0653C50.7172 42.4538 50.7172 46.8423 50.7172 51.2309C50.7172 51.4252 50.7334 51.6357 50.701 51.83C50.6201 52.3158 50.1828 52.6721 49.7132 52.6235C49.2112 52.5911 48.9035 52.2996 48.8064 51.7976C48.774 51.6195 48.7902 51.4414 48.7902 51.2471C48.7902 42.4538 48.7902 33.6444 48.7902 24.8512C48.7902 24.6731 48.774 24.4787 48.8064 24.3006C48.9035 23.7824 49.2436 23.4747 49.778 23.4747C50.28 23.4747 50.6039 23.7824 50.7172 24.2682C50.7658 24.4626 50.7334 24.6731 50.7334 24.8674C50.7172 29.2883 50.7172 33.6768 50.7172 38.0653Z" fill="#FF0000"/>
<path d="M35.1547 31.2639C37.3409 31.2639 39.527 31.2639 41.697 31.2639C42.4743 31.2639 42.9115 31.604 42.9277 32.2032C42.9439 32.8347 42.4905 33.2072 41.6808 33.2072C37.3085 33.2072 32.9524 33.2072 28.5801 33.2072C27.738 33.2072 27.2036 32.6566 27.4141 31.9926C27.576 31.4582 27.9809 31.2639 28.5315 31.2639C30.75 31.2639 32.9524 31.2639 35.1547 31.2639Z" fill="#FF0000"/>
<path d="M35.1872 37.0938C33.001 37.0938 30.8149 37.0938 28.6449 37.0938C27.8514 37.0938 27.3818 36.7213 27.4142 36.0898C27.4304 35.4906 27.8676 35.1505 28.6449 35.1505C33.0172 35.1505 37.3733 35.1505 41.7457 35.1505C42.5068 35.1505 42.944 35.5068 42.9602 36.1221C42.9602 36.7375 42.523 37.0938 41.7619 37.0938C39.5433 37.0938 37.3733 37.0938 35.1872 37.0938Z" fill="#FF0000"/>
<path d="M33.244 40.9801C31.6894 40.9801 30.1348 40.9801 28.5802 40.9801C27.8353 40.9801 27.3818 40.5915 27.4142 39.9761C27.4304 39.3931 27.8676 39.0369 28.5802 39.0369C31.6894 39.0369 34.7986 39.0369 37.924 39.0369C38.6365 39.0369 39.0737 39.4093 39.0737 40.0085C39.0737 40.6077 38.6365 40.9801 37.924 40.9801C36.3532 40.9801 34.7986 40.9801 33.244 40.9801Z" fill="#FF0000"/>
<path d="M38.0696 27.3774C39.3003 27.3774 40.531 27.3774 41.7617 27.3774C42.4743 27.3774 42.9115 27.7337 42.9277 28.3329C42.9439 28.9482 42.4905 29.3207 41.7455 29.3207C39.3003 29.3207 36.855 29.3207 34.4098 29.3207C33.6487 29.3207 33.2114 28.9482 33.2114 28.3329C33.2114 27.7337 33.6487 27.3774 34.426 27.3774C35.6567 27.3774 36.8712 27.3774 38.0696 27.3774Z" fill="#FF0000"/>
<path d="M29.3412 29.3206C29.0173 29.3206 28.6935 29.3368 28.3696 29.3206C27.8028 29.2882 27.3979 28.8996 27.3979 28.3652C27.3818 27.8308 27.7704 27.4097 28.3372 27.3936C29.0011 27.3612 29.6651 27.3612 30.329 27.3936C30.8958 27.4097 31.2845 27.847 31.2683 28.3652C31.2521 28.8996 30.8634 29.2882 30.2966 29.3206C29.989 29.3368 29.6651 29.3206 29.3412 29.3206Z" fill="#FF0000"/>
<path d="M54.5871 9.53186C54.5871 10.4387 54.5871 11.2808 54.5871 12.1876C54.0041 11.8962 53.4373 11.6371 52.9029 11.3456C52.5467 11.1512 52.5467 10.5683 52.9029 10.3901C53.4211 10.0986 53.9555 9.83954 54.5871 9.53186Z" fill="#FF0000"/>
</svg>
