<svg width="62" height="62" viewBox="0 0 62 62" fill="none" xmlns="http://www.w3.org/2000/svg">
<path d="M23.3277 17.8643L24.061 17.1658C25.8771 15.28 25.5628 14.4069 23.7817 12.6258L14.2825 3.02186C11.4537 0.158143 10.9299 -1.20387 8.24078 1.34554L7.50738 2.044L23.3277 17.8643ZM21.4767 19.4358L6.11045 4.06956C3.66581 7.35235 -2.06162 16.188 0.767174 22.7186C3.31658 28.5508 4.57382 28.8302 7.75184 33.1956C14.2127 40.5645 22.3498 48.4571 28.7059 54.3941C33.1062 57.5721 33.2808 59.0389 39.1829 61.3788C45.4691 63.8583 54.5491 58.2706 57.9716 55.9307L42.6053 40.5645L38.4844 46.222C37.297 47.8285 34.2936 46.0125 32.1982 43.9171C28.5662 40.2501 21.0926 32.8115 18.2288 29.7033C16.1684 27.6428 14.3174 24.6394 15.9239 23.4171L21.4767 19.4358ZM59.9623 54.5338L60.6956 53.8004C63.0704 51.2161 61.7084 50.6573 58.8796 47.8634L49.3106 38.3643C47.5295 36.653 46.6914 36.2689 44.8754 37.9801L44.1769 38.7135L59.9623 54.5338Z" fill="#FF0000"/>
</svg>
