<svg width="71" height="31" viewBox="0 0 71 31" fill="none" xmlns="http://www.w3.org/2000/svg">
<path d="M11.3 30.369C7.82867 30.369 5.17733 29.098 3.346 26.556C1.542 23.9867 0.64 20.2557 0.64 15.363C0.64 10.5523 1.542 6.876 3.346 4.334C5.17733 1.792 7.82867 0.520998 11.3 0.520998C14.7713 0.520998 17.409 1.792 19.213 4.334C21.0443 6.84866 21.96 10.525 21.96 15.363C21.96 20.2283 21.0443 23.9457 19.213 26.515C17.409 29.0843 14.7713 30.369 11.3 30.369ZM11.3 26.228C13.186 26.228 14.5527 25.367 15.4 23.645C16.2747 21.8957 16.712 19.135 16.712 15.363C16.712 11.6457 16.2747 8.93967 15.4 7.245C14.5527 5.523 13.186 4.662 11.3 4.662C9.414 4.662 8.03367 5.523 7.159 7.245C6.31167 8.93967 5.888 11.6457 5.888 15.363C5.888 19.135 6.31167 21.8957 7.159 23.645C8.03367 25.367 9.414 26.228 11.3 26.228ZM40.804 14.994C42.69 15.4587 44.166 16.3197 45.232 17.577C46.298 18.8343 46.831 20.3513 46.831 22.128C46.831 23.7953 46.3663 25.2577 45.437 26.515C44.535 27.745 43.2503 28.688 41.583 29.344C39.943 30 38.0433 30.328 35.884 30.328C33.7247 30.328 31.8113 30 30.144 29.344C28.504 28.688 27.2193 27.745 26.29 26.515C25.388 25.2577 24.937 23.7953 24.937 22.128C24.937 20.3513 25.47 18.8343 26.536 17.577C27.602 16.3197 29.078 15.4587 30.964 14.994C29.324 14.4473 28.0257 13.5863 27.069 12.411C26.1397 11.2357 25.675 9.869 25.675 8.311C25.675 6.72567 26.1123 5.34533 26.987 4.17C27.8617 2.96733 29.0643 2.05167 30.595 1.423C32.153 0.766999 33.916 0.438999 35.884 0.438999C37.852 0.438999 39.6013 0.766999 41.132 1.423C42.69 2.05167 43.9063 2.96733 44.781 4.17C45.6557 5.34533 46.093 6.72567 46.093 8.311C46.093 9.89633 45.6147 11.2903 44.658 12.493C43.7287 13.6683 42.444 14.502 40.804 14.994ZM35.884 4.58C34.2713 4.58 33.0003 4.949 32.071 5.687C31.1417 6.425 30.677 7.47733 30.677 8.844C30.677 10.1287 31.1417 11.181 32.071 12.001C33.0277 12.7937 34.2987 13.313 35.884 13.559C37.4693 13.313 38.7267 12.7937 39.656 12.001C40.6127 11.181 41.091 10.1287 41.091 8.844C41.091 7.47733 40.6263 6.425 39.697 5.687C38.7677 4.949 37.4967 4.58 35.884 4.58ZM35.884 26.187C37.7427 26.187 39.1913 25.8043 40.23 25.039C41.296 24.2737 41.829 23.1803 41.829 21.759C41.829 20.4197 41.2823 19.34 40.189 18.52C39.123 17.7 37.688 17.167 35.884 16.921C34.08 17.167 32.6313 17.7 31.538 18.52C30.472 19.34 29.939 20.4197 29.939 21.759C29.939 23.1803 30.4583 24.2737 31.497 25.039C32.563 25.8043 34.0253 26.187 35.884 26.187ZM70.636 0.807999V4.744L57.393 30H51.735L64.937 5.113H50.3V0.807999H70.636Z" fill="#FF0000"/>
</svg>
