<svg width="21" height="17" viewBox="0 0 21 17" fill="none" xmlns="http://www.w3.org/2000/svg">
<path d="M0 5.84137C0.136648 5.69379 0.311556 5.67192 0.508329 5.67192C1.1697 5.68286 1.83108 5.66646 2.49792 5.67739C2.6619 5.67739 2.73295 5.63366 2.78761 5.47515C3.24128 4.1524 4.00104 3.02643 5.03956 2.09176C5.21447 1.93325 5.37845 1.92231 5.50963 2.04803C5.64628 2.17921 5.64081 2.36505 5.4823 2.51263C5.21447 2.76406 4.94664 3.02096 4.71707 3.30519C4.75534 3.37625 4.81546 3.34345 4.86465 3.34345C5.48777 3.34345 6.10541 3.34345 6.72853 3.34892C6.83238 3.34892 6.89797 3.33798 6.94716 3.2232C7.27512 2.41425 7.69599 1.66542 8.31364 1.03137C8.32457 1.02044 8.32457 0.993111 8.33004 0.976714C8.25898 0.927521 8.19885 0.976714 8.13326 0.998577C7.62493 1.16255 7.14394 1.38119 6.6848 1.65449C6.54269 1.73647 6.40604 1.77474 6.26939 1.65995C6.08902 1.51237 6.12728 1.26641 6.36778 1.12429C7.01822 0.74168 7.70692 0.451987 8.43389 0.266146C12.5989 -0.805171 16.7913 1.44132 18.2288 5.50248C18.2616 5.60087 18.2834 5.68286 18.431 5.67739C18.6114 5.67739 18.7207 5.81404 18.7207 5.98348C18.7153 6.15839 18.5895 6.28411 18.3982 6.28411C17.8735 6.28957 17.3488 6.29504 16.8186 6.28411C16.6546 6.27864 16.6054 6.31144 16.6054 6.49181C16.6163 7.61232 16.6163 8.73283 16.6054 9.85334C16.6054 10.0173 16.6273 10.072 16.8077 10.0665C17.9336 10.0556 19.0596 10.061 20.191 10.0665C20.3332 10.0665 20.3878 10.0501 20.3878 9.88614C20.3769 8.74376 20.3824 7.60685 20.3878 6.46448C20.3878 6.3169 20.3496 6.27317 20.2074 6.28957C20.0872 6.3005 19.9615 6.3005 19.8412 6.28957C19.6663 6.27864 19.5461 6.14746 19.5461 5.98348C19.5461 5.8195 19.6663 5.68832 19.8467 5.68286C20.1309 5.67739 20.4206 5.67192 20.7048 5.68286C20.9016 5.68832 21 5.8195 21 6.04907C21 6.57926 21 7.11492 21 7.64512C21 8.51966 21 9.39421 21 10.2687C21 10.5858 20.9016 10.6787 20.5846 10.6842C19.8795 10.6842 19.1799 10.6896 18.4748 10.6787C18.3326 10.6787 18.278 10.7224 18.2288 10.8536C17.1793 13.6521 15.2225 15.4778 12.3037 16.1501C8.12233 17.1066 4.15955 14.7289 2.79854 10.8973C2.73842 10.7279 2.6619 10.6732 2.48152 10.6787C1.82561 10.6896 1.1697 10.6787 0.513795 10.6896C0.317022 10.6951 0.147579 10.6678 0.0054659 10.5202C0 8.95693 0 7.39915 0 5.84137ZM3.36153 10.6787C3.56377 11.269 3.83706 11.7992 4.15955 12.3075C4.20875 12.3841 4.27434 12.3895 4.35086 12.3895C5.06689 12.3895 5.78293 12.3895 6.50443 12.3895C6.63014 12.3895 6.66294 12.3622 6.61921 12.2365C6.46616 11.7773 6.36231 11.3018 6.28032 10.8263C6.25846 10.7006 6.20927 10.6732 6.09448 10.6787C5.76653 10.6842 5.43857 10.6842 5.11062 10.6787C4.93024 10.6732 4.81 10.5475 4.80453 10.3835C4.79906 10.2141 4.93024 10.0829 5.11609 10.0665C5.17621 10.061 5.23634 10.0665 5.30193 10.0665C8.79464 10.0665 12.2819 10.0665 15.7746 10.072C15.9386 10.072 15.9878 10.0392 15.9878 9.86427C15.9768 8.7383 15.9823 7.61232 15.9878 6.48088C15.9878 6.3333 15.9604 6.28957 15.8019 6.28957C10.8006 6.29504 5.79932 6.29504 0.798022 6.28957C0.644977 6.28957 0.606715 6.32237 0.606715 6.47541C0.612181 7.54126 0.612181 8.60711 0.612181 9.67297C0.612181 10.0665 0.612181 10.0665 1.00026 10.0665C1.88027 10.0665 2.76028 10.0665 3.64576 10.0665C3.85346 10.0665 3.98464 10.1868 3.98464 10.3671C3.98464 10.553 3.85893 10.6732 3.65669 10.6787C3.56377 10.6842 3.47631 10.6787 3.36153 10.6787ZM8.53774 5.67192C9.03514 5.67192 9.53254 5.66646 10.0354 5.67192C10.1447 5.67192 10.1884 5.65006 10.1884 5.52981C10.183 5.05974 10.183 4.58968 10.1884 4.11414C10.1884 3.97749 10.1338 3.9611 10.019 3.9611C9.17179 3.96656 8.32457 3.96656 7.47736 3.9611C7.35164 3.9611 7.29698 3.99936 7.26419 4.11961C7.12207 4.58421 7.00182 5.04881 6.90344 5.52435C6.87611 5.6446 6.89797 5.67739 7.02369 5.67192C7.52655 5.67192 8.03488 5.67192 8.53774 5.67192ZM12.4623 5.67192C12.9597 5.67192 13.4571 5.67192 13.9599 5.67192C14.0692 5.67192 14.1184 5.66646 14.0856 5.52981C13.9872 5.05428 13.867 4.58968 13.7249 4.12507C13.6866 3.99936 13.6265 3.9611 13.4953 3.9611C12.6645 3.96656 11.8282 3.96656 10.9974 3.9611C10.8498 3.9611 10.7952 3.98843 10.8006 4.1524C10.8116 4.60061 10.8116 5.05428 10.8006 5.50248C10.8006 5.63366 10.828 5.67739 10.9701 5.67192C11.462 5.66646 11.9649 5.67192 12.4623 5.67192ZM8.74545 12.3841C9.17725 12.3841 9.60359 12.3786 10.0354 12.3841C10.1502 12.3841 10.1884 12.3513 10.1884 12.2365C10.183 11.7609 10.183 11.2799 10.1884 10.8044C10.1884 10.706 10.1611 10.6787 10.0627 10.6787C9.04607 10.6842 8.02941 10.6842 7.00729 10.6787C6.9089 10.6787 6.87611 10.6951 6.89797 10.8044C7.00182 11.2909 7.11661 11.7719 7.26965 12.2474C7.30245 12.3567 7.35711 12.3895 7.47189 12.3895C7.89823 12.3786 8.31911 12.3841 8.74545 12.3841ZM12.4623 10.6787C11.9594 10.6787 11.4511 10.6842 10.9482 10.6787C10.8334 10.6787 10.7952 10.706 10.8006 10.8263C10.8061 11.2909 10.8061 11.7555 10.8006 12.2201C10.8006 12.3567 10.8389 12.395 10.9755 12.3895C11.8227 12.3841 12.67 12.3841 13.5172 12.3895C13.6484 12.3895 13.6921 12.3403 13.7303 12.231C13.8725 11.7664 13.9927 11.3018 14.0911 10.8263C14.1184 10.6951 14.0856 10.6787 13.9708 10.6787C13.4625 10.6787 12.9651 10.6787 12.4623 10.6787ZM3.36153 5.67192C4.30713 5.67192 5.23087 5.67192 6.16007 5.67192C6.25846 5.67192 6.26393 5.62273 6.28032 5.54621C6.36778 5.06521 6.4771 4.58421 6.62468 4.11961C6.66294 4.01029 6.652 3.9611 6.51536 3.9611C5.78293 3.96656 5.05596 3.96656 4.32353 3.9611C4.24701 3.9611 4.19781 3.98296 4.15409 4.04855C3.8316 4.55688 3.5583 5.08707 3.36153 5.67192ZM17.6221 5.67192C17.4198 5.07614 17.1411 4.53502 16.8077 4.02122C16.7694 3.96656 16.7202 3.9611 16.6655 3.9611C15.9276 3.9611 15.1897 3.9611 14.4518 3.9611C14.3425 3.9611 14.3207 3.99389 14.3535 4.09228C14.512 4.57328 14.6213 5.06521 14.7087 5.56261C14.7251 5.65006 14.7579 5.67192 14.8399 5.67192C15.7637 5.67192 16.6874 5.67192 17.6221 5.67192ZM17.6275 10.6787C16.6929 10.6787 15.7746 10.6787 14.8618 10.6787C14.7579 10.6787 14.7251 10.7115 14.7087 10.8099C14.6213 11.2909 14.5174 11.7719 14.3589 12.2365C14.3152 12.3622 14.3589 12.3841 14.4792 12.3841C15.2007 12.3786 15.9276 12.3786 16.6491 12.3841C16.7311 12.3841 16.7858 12.3622 16.835 12.2911C17.152 11.7937 17.4198 11.269 17.6275 10.6787ZM13.3969 3.35438C13.3969 3.32159 13.4024 3.29426 13.3969 3.27786C13.0799 2.55636 12.6864 1.87859 12.1015 1.332C11.7736 1.02591 11.4019 0.785407 10.9646 0.676089C10.8771 0.654225 10.7952 0.626896 10.8006 0.779941C10.8061 1.59436 10.8061 2.40331 10.8006 3.21773C10.8006 3.33252 10.8444 3.35438 10.9427 3.35438C11.1559 3.34892 11.3636 3.35438 11.5768 3.35438C12.1835 3.35438 12.7902 3.35438 13.3969 3.35438ZM10.8006 14.3463C10.8006 14.7344 10.8116 15.1225 10.7952 15.516C10.7897 15.7128 10.8717 15.7073 11.0083 15.6691C11.3527 15.5652 11.6588 15.3958 11.9375 15.1662C12.5989 14.6141 13.0252 13.8981 13.3751 13.1329C13.4407 12.9908 13.3587 13.0072 13.2712 13.0072C12.5005 13.0072 11.7298 13.0126 10.9591 13.0017C10.8334 13.0017 10.7952 13.04 10.8006 13.1602C10.8061 13.5538 10.8006 13.9528 10.8006 14.3463ZM7.55388 3.35438C8.41749 3.35438 9.24284 3.35438 10.0682 3.35438C10.1775 3.35438 10.1884 3.30519 10.1884 3.21773C10.1884 2.41425 10.183 1.60529 10.1884 0.801805C10.1884 0.64876 10.1283 0.64876 10.019 0.676089C9.72384 0.752612 9.45601 0.883793 9.21551 1.06417C8.42842 1.64355 7.95836 2.44704 7.55388 3.35438ZM10.183 14.3463C10.183 13.9418 10.1775 13.5428 10.183 13.1383C10.183 13.029 10.1502 12.9962 10.0463 13.0017C9.25924 13.0072 8.47762 13.0072 7.69053 13.0017C7.58121 13.0017 7.55934 13.0236 7.60854 13.1274C7.92009 13.8216 8.30817 14.472 8.86569 15.0022C9.18818 15.3083 9.54893 15.5433 9.97527 15.6691C10.1119 15.7128 10.1939 15.7073 10.1884 15.516C10.172 15.1225 10.183 14.7344 10.183 14.3463ZM12.6481 0.960316C12.9487 1.2992 13.222 1.65995 13.4571 2.04256C13.6921 2.42518 13.8943 2.82965 14.0583 3.24506C14.0966 3.34892 14.1622 3.34892 14.2496 3.34892C14.5994 3.34892 14.9438 3.34892 15.2936 3.34892C15.6161 3.34892 15.944 3.34892 16.3157 3.34892C15.2936 2.17375 14.0966 1.38119 12.6481 0.960316ZM16.3103 13.0017C16.1955 13.0017 16.1299 13.0017 16.0643 13.0017C15.4794 13.0017 14.8891 13.0072 14.3043 12.9962C14.1512 12.9962 14.0747 13.0345 14.02 13.1821C13.7741 13.8052 13.4516 14.39 13.0307 14.9148C12.905 15.0733 12.7629 15.2263 12.6317 15.3794C14.0911 14.9749 15.2881 14.1769 16.3103 13.0017ZM8.33004 15.4122C8.31911 15.3575 8.31911 15.3302 8.30817 15.3192C7.69053 14.6797 7.26419 13.9254 6.93623 13.111C6.8925 12.9962 6.81598 13.0017 6.72853 13.0017C6.09995 13.0017 5.47137 13.0017 4.84279 13.0017C4.79906 13.0017 4.7444 12.9744 4.71707 13.0454C5.69001 14.1714 6.87611 14.964 8.33004 15.4122Z" fill="currentColor"/>
<path d="M17.3047 8.01132C17.332 7.61777 17.5233 7.27889 17.9278 7.09851C18.3432 6.91267 18.7313 6.97826 19.0647 7.28435C19.3927 7.57951 19.491 7.96213 19.3489 8.383C19.2997 8.52511 19.3216 8.6071 19.4255 8.69456C19.4856 8.74375 19.5457 8.80387 19.5949 8.86947C19.6933 9.00065 19.6824 9.14276 19.5676 9.25754C19.4473 9.38326 19.2724 9.41606 19.1686 9.28487C18.9663 9.02251 18.7477 9.03891 18.4525 9.09357C17.8677 9.19742 17.3047 8.66723 17.3047 8.01132ZM18.3541 7.61231C18.1136 7.61777 17.9114 7.83094 17.9223 8.06598C17.9333 8.29555 18.1355 8.49232 18.3651 8.48685C18.6056 8.48139 18.8078 8.26822 18.7969 8.03318C18.7859 7.80361 18.5837 7.60684 18.3541 7.61231Z" fill="#FF0000"/>
</svg>
