<svg width="34" height="13" viewBox="0 0 34 13" fill="none" xmlns="http://www.w3.org/2000/svg">
<path d="M17.3127 3.83314V3.20532H19.1794V12.0255H18.1123C17.9011 12.0259 17.6983 11.9419 17.5485 11.7921C17.3986 11.6423 17.3138 11.4387 17.3127 11.2261V11.2275C16.5336 11.8017 15.5927 12.1106 14.6271 12.1092C13.4206 12.1092 12.2635 11.6269 11.4101 10.7682C10.5567 9.90961 10.0769 8.74496 10.0762 7.5303C10.0769 6.31564 10.5567 5.15099 11.4101 4.29236C12.2635 3.43373 13.4206 2.9514 14.6271 2.9514C15.5922 2.9503 16.5326 3.25919 17.3113 3.83314H17.3127ZM9.59258 0.370361V0.656368C9.59258 1.18932 9.5219 1.62461 9.17684 2.13523L9.13527 2.18267C9.02031 2.31246 8.90849 2.44504 8.79991 2.58029L2.8092 10.1504H9.59258V11.2219C9.59258 11.3275 9.57188 11.4321 9.53168 11.5297C9.49148 11.6273 9.43256 11.716 9.3583 11.7906C9.28403 11.8653 9.19587 11.9244 9.09887 11.9647C9.00187 12.005 8.89792 12.0257 8.79298 12.0255H0.00439453V11.5204C0.00439453 10.9024 0.15683 10.6262 0.350838 10.3387L6.73511 2.37938H0.270463V0.370361H9.59396H9.59258ZM21.4423 12.0255C21.2659 12.0255 21.0967 11.9549 20.972 11.8293C20.8472 11.7038 20.7772 11.5334 20.7772 11.3558V0.370361H22.7741V12.0255H21.4423ZM28.6802 2.89559C29.2819 2.89541 29.8777 3.01453 30.4336 3.24616C30.9895 3.47778 31.4946 3.81737 31.9202 4.24554C32.3457 4.67371 32.6833 5.18208 32.9137 5.74161C33.1441 6.30114 33.2628 6.90087 33.263 7.50658C33.2632 8.11229 33.1449 8.7121 32.9148 9.27177C32.6847 9.83144 32.3474 10.34 31.9221 10.7684C31.4968 11.1969 30.9919 11.5368 30.4361 11.7687C29.8804 12.0007 29.2847 12.1202 28.683 12.1204C27.468 12.1207 26.3025 11.6351 25.4431 10.7704C24.5837 9.90568 24.1006 8.73265 24.1003 7.50937C24.0999 6.28609 24.5822 5.11277 25.4411 4.24751C26.3 3.38226 27.4652 2.89596 28.6802 2.89559ZM14.6285 10.2243C14.9851 10.2325 15.3398 10.1689 15.6716 10.0371C16.0034 9.90535 16.3058 9.70816 16.5609 9.45712C16.816 9.20609 17.0187 8.90626 17.157 8.57525C17.2954 8.24424 17.3667 7.88873 17.3667 7.5296C17.3667 7.17047 17.2954 6.81496 17.157 6.48395C17.0187 6.15295 16.816 5.85312 16.5609 5.60208C16.3058 5.35104 16.0034 5.15385 15.6716 5.0221C15.3398 4.89035 14.9851 4.82669 14.6285 4.83486C13.9291 4.85088 13.2638 5.14183 12.7748 5.64544C12.2858 6.14906 12.0121 6.82535 12.0121 7.5296C12.0121 8.23386 12.2858 8.91014 12.7748 9.41376C13.2638 9.91738 13.9291 10.2083 14.6285 10.2243ZM28.6802 10.2202C29.3951 10.2202 30.0807 9.93427 30.5861 9.42537C31.0916 8.91648 31.3756 8.22627 31.3756 7.50658C31.3756 6.7869 31.0916 6.09669 30.5861 5.58779C30.0807 5.0789 29.3951 4.793 28.6802 4.793C27.9654 4.793 27.2798 5.0789 26.7744 5.58779C26.2689 6.09669 25.9849 6.7869 25.9849 7.50658C25.9849 8.22627 26.2689 8.91648 26.7744 9.42537C27.2798 9.93427 27.9654 10.2202 28.6802 10.2202Z" fill="currentColor"/>
</svg>
