<svg width="42" height="42" viewBox="0 0 42 42" fill="none" xmlns="http://www.w3.org/2000/svg">
<path d="M5.61909 0C-1.88612 7.3061 -1.85993 19.4311 5.61909 26.9084L8.07484 24.4509C1.92674 18.3046 1.95469 8.47285 8.07484 2.50989L5.61909 0ZM36.4032 0.162435L33.944 2.67582C40.0991 8.82915 40.0991 18.4635 33.944 24.6168L36.4015 27.1285C38.176 25.3602 39.584 23.2591 40.5447 20.9455C41.5055 18.6319 42 16.1514 42 13.6463C42 11.1412 41.5055 8.66074 40.5447 6.34716C39.584 4.03358 38.176 1.93242 36.4015 0.164182L36.4032 0.162435ZM10.3647 5.23986C5.8479 9.75486 5.8479 17.1518 10.3647 21.6685L12.8204 19.2111C11.3002 17.6804 10.447 15.6106 10.447 13.4533C10.447 11.296 11.3002 9.22626 12.8204 7.6956L10.3647 5.23986ZM31.6524 5.40229L29.1967 7.91567C29.9493 8.66823 30.5462 9.56165 30.9535 10.5449C31.3608 11.5282 31.5704 12.582 31.5704 13.6463C31.5704 14.7106 31.3608 15.7645 30.9535 16.7477C30.5462 17.731 29.9493 18.6244 29.1967 19.377L31.6542 21.8886C36.1709 17.3719 36.1709 9.92079 31.6542 5.40404L31.6524 5.40229ZM21.0103 10.1513C19.0803 10.1513 17.5171 11.7146 17.5171 13.6446C17.5171 14.7362 18.041 15.6776 18.827 16.3187L11.0755 38.0972H8.78397V41.5905H15.7704V38.0972H14.7329L21.0103 20.5769L27.2876 38.0972H26.2502V41.5905H33.2366V38.0972H30.9433L23.1936 16.3187C23.9795 15.6776 24.5035 14.7362 24.5035 13.6446C24.5035 11.7146 22.9403 10.1513 21.0103 10.1513Z" fill="#FF0000"/>
</svg>
