<svg width="49" height="63" viewBox="0 0 49 63" fill="none" xmlns="http://www.w3.org/2000/svg">
<path d="M24.0688 62.3855C20.0879 62.4035 16.0889 62.3494 12.144 61.809C9.49601 61.4488 6.86606 60.9444 4.41625 59.7915C2.52485 58.9089 0.885631 57.702 0.309203 55.5944C-0.411331 52.9825 0.165097 50.6047 1.98445 48.5872C3.47955 46.93 5.37096 45.7772 7.28037 44.6783C9.78423 43.2373 12.3241 41.8502 15.0621 40.8415C15.5845 40.6433 16.0889 40.4092 16.5572 40.0669C17.9082 39.1122 18.3045 37.5811 17.602 36.068C17.2598 35.3474 16.7554 34.753 16.269 34.1225C13.9633 31.1503 12.2521 27.8899 11.5856 24.1611C10.9191 20.4864 10.9371 16.8477 12.5763 13.3891C14.5217 9.30011 17.8362 7.10248 22.2675 6.54407C24.9335 6.20182 27.5274 6.43599 29.9952 7.57083C33.9401 9.39018 36.0117 12.6326 36.7862 16.7937C37.5968 21.1169 36.8043 25.2419 35.0029 29.2049C34.8768 29.4931 34.6967 29.6732 34.3725 29.7273C33.706 29.8533 33.0575 29.9975 32.391 30.1596C32.1388 30.2136 31.9587 30.1235 31.7605 29.9975C31.094 29.5651 30.3735 29.385 29.5809 29.385C28.7523 29.403 27.9057 29.367 27.077 29.403C25.0235 29.4571 23.4023 31.1323 23.4203 33.1498C23.4383 35.1493 25.0415 36.7885 27.059 36.8425C28.0498 36.8605 29.0405 36.8605 30.0312 36.8245C30.3735 36.8065 30.4636 36.8786 30.4095 37.2208C30.1393 38.842 30.9139 39.8688 32.2469 40.6253C33.8681 41.526 35.6514 42.0304 37.3266 42.7869C40.1007 44.0299 42.8207 45.3448 45.1444 47.3623C47.7023 49.578 48.549 52.352 47.9545 55.6124C47.7023 57.0175 46.8197 58.0442 45.6848 58.8368C43.7934 60.1698 41.6138 60.8003 39.3802 61.2506C34.7327 62.2053 30.0132 62.3675 25.2757 62.3675C24.8794 62.3855 24.4831 62.3855 24.0688 62.3855Z" fill="#FF0000"/>
<path d="M45.541 25.0798C45.541 26.1065 45.559 27.1513 45.541 28.1781C45.505 30.6999 43.0912 32.2491 40.7854 31.2223C40.4792 31.0782 40.2991 31.0782 40.0109 31.2584C37.5791 32.8976 34.8591 33.6361 31.9769 33.9604C31.6347 33.9964 31.4005 34.0865 31.2024 34.3747C30.8421 34.843 30.3377 35.0592 29.7253 35.0592C28.8786 35.0592 28.014 35.0772 27.1674 35.0592C26.1046 35.0412 25.312 34.2846 25.2579 33.2578C25.1859 32.2131 25.8344 31.3484 26.8972 31.2223C27.9239 31.0962 28.9687 31.1503 29.9955 31.2043C30.3017 31.2223 30.6619 31.2944 30.8601 31.5466C31.2924 32.105 31.8328 32.0509 32.4092 31.9609C34.6249 31.6186 36.7505 30.9882 38.6599 29.7993C38.9481 29.6191 39.0922 29.475 38.9841 29.0607C38.858 28.5744 38.8941 28.034 38.8941 27.5116C38.876 25.7102 38.9121 23.9089 38.876 22.1076C38.858 20.8106 39.2903 19.7658 40.4072 19.0813C40.7314 18.8832 40.6594 18.649 40.6413 18.3968C39.9388 12.2543 36.9126 7.66086 31.3825 4.88681C21.3851 -0.138917 9.26209 6.2198 7.60486 17.298C7.58685 17.4781 7.58685 17.6583 7.55082 17.8384C7.3887 18.4869 7.42473 18.9733 8.10923 19.4056C8.86579 19.8919 9.22606 20.7566 9.22606 21.6753C9.24407 23.9269 9.26209 26.1786 9.22606 28.4303C9.19003 30.1956 7.76698 31.5286 5.98366 31.5466C4.18232 31.5646 2.6692 30.2496 2.61516 28.4663C2.56112 26.1966 2.57913 23.9269 2.61516 21.6392C2.63317 20.5945 3.13755 19.7298 4.0202 19.1534C4.34444 18.9372 4.47054 18.7391 4.48855 18.3608C4.99292 9.58829 11.9461 1.89659 20.6285 0.473537C31.3465 -1.29177 41.1097 5.4092 43.3253 16.0191C43.4154 16.4154 43.4694 16.8116 43.5055 17.226C43.5775 18.1627 43.6496 19.0093 44.5863 19.6217C45.3248 20.1081 45.505 21.0268 45.523 21.9094C45.559 22.9542 45.541 24.017 45.541 25.0798Z" fill="#FF0000"/>
</svg>
